# xmcd
#
# Track frame offsets:
#	180
#	12021
#	25156
#	36387
#	52177
#	68897
#	85777
#	97968
#	108119
#	121631
#	134662
#	147861
#
# Disc length: 2211 seconds
#
# Revision: 0
# Processed by: cddbd v1.5.1PL0 Copyright (c) Steve Scherf et al.
# Submitted via: dBpowerAMP V4.0
#
DISCID=9a08a10c
DTITLE=Del McCoury Band - Ceili Music
DYEAR=1999
DGENRE=Bluegrass
TTITLE0=A Far Cry from Virginia	
TTITLE1=50/50 Chance of Love
TTITLE2=The Look of a Pefect Diamond
TTITLE3=Backslidin'
TTITLE4=Nashville Cats
TTITLE5=Get Down On Your Knees and Pray
TTITLE6=Bubscud
TTITLE7=Don't You Think It's Time To Go
TTITLE8=Crying Heart Blues
TTITLE9=She's Left Me Again
TTITLE10=On The Lonesome Wind
TTITLE11=The City of Stone
EXTD=
EXTT0=
EXTT1=
EXTT2=
EXTT3=
EXTT4=
EXTT5=
EXTT6=
EXTT7=
EXTT8=
EXTT9=
EXTT10=
EXTT11=
PLAYORDER=
